<svg version="1.1" xmlns="http://www.w3.org/2000/svg" xmlns:xlink="http://www.w3.org/1999/xlink" width="19" height="18"><defs/><g><path fill="rgb(255,255,255)" stroke="none" paint-order="stroke fill markers" fill-rule="evenodd" d=" M 9.999879956245422 1.9998725652694702 C 5.581646919250488 1.9998725652694702 1.9998875856399536 5.777371764183044 1.9998875856399536 10.437382102012634 C 1.9998875856399536 10.95518672466278 2.397799253463745 11.374876737594604 2.888744831085205 11.374876737594604 C 3.379690408706665 11.374876737594604 3.7776020765304565 10.95518672466278 3.7776020765304565 10.437382102012634 C 3.7776020765304565 6.81876266002655 6.568896532058716 3.8747462034225464 9.999879956245422 3.8747462034225464 C 13.430770993232727 3.8747462034225464 16.222065448760986 6.81876266002655 16.222065448760986 10.437382102012634 C 16.222065448760986 10.95518672466278 16.62006950378418 11.374876737594604 17.11101508140564 11.374876737594604 C 17.601868271827698 11.374876737594604 17.99987232685089 10.95518672466278 17.99987232685089 10.437382102012634 C 17.99987232685089 5.777371764183044 14.418112993240356 1.9998725652694702 9.999879956245422 1.9998725652694702 Z M 9.999879956245422 11.374876737594604 C 10.980108141899109 11.374876737594604 11.777686834335327 12.215991258621216 11.777686834335327 13.24975037574768 C 11.777686834335327 14.283682942390442 10.980108141899109 15.124739646911621 9.999879956245422 15.124739646911621 C 9.019559383392334 15.124739646911621 8.222073078155518 14.283682942390442 8.222073078155518 13.24975037574768 C 8.222073078155518 12.215991258621216 9.019559383392334 11.374876737594604 9.999879956245422 11.374876737594604 C 10.980108141899109 11.374876737594604 9.999879956245422 11.374876737594604 9.999879956245422 11.374876737594604 M 9.999879956245422 9.499829649925232 C 8.036190032958984 9.499829649925232 6.444266200065613 11.178763151168823 6.444266200065613 13.24975037574768 C 6.444266200065613 15.320911049842834 8.036190032958984 16.999786734580994 9.999879956245422 16.999786734580994 C 11.96356987953186 16.999786734580994 13.55540132522583 15.320911049842834 13.55540132522583 13.24975037574768 C 13.55540132522583 11.178763151168823 11.96356987953186 9.499829649925232 9.999879956245422 9.499829649925232 C 9.999879956245422 9.499829649925232 9.999879956245422 9.499829649925232 9.999879956245422 9.499829649925232 Z M 9.999879956245422 5.749793291091919 C 9.999879956245422 5.749793291091919 9.999879956245422 5.749793291091919 9.999879956245422 5.749793291091919 C 9.508934378623962 5.749793291091919 9.111022710800171 6.169483304023743 9.111022710800171 6.687287926673889 C 9.111022710800171 6.687287926673889 9.111022710800171 10.96466863155365 9.111022710800171 10.96466863155365 C 9.111022710800171 10.96466863155365 10.888737201690674 10.96466863155365 10.888737201690674 10.96466863155365 C 10.888737201690674 10.96466863155365 10.888737201690674 6.687287926673889 10.888737201690674 6.687287926673889 C 10.888737201690674 6.169483304023743 10.490825533866882 5.749793291091919 9.999879956245422 5.749793291091919 Z"/></g></svg>